<svg xmlns="http://www.w3.org/2000/svg" xmlns:xlink="http://www.w3.org/1999/xlink" preserveAspectRatio="xMidYMid" width="32" height="30" viewBox="0 0 32 30">
  <defs>
    <style>
      .cls-1 {
        fill: #ff547c;
        fill-rule: evenodd;
      }
    </style>
  </defs>
  <path d="M23.000,3.000 C26.308,3.000 29.000,5.691 29.000,9.000 C29.000,17.839 19.565,24.391 16.000,26.550 C12.434,24.391 3.000,17.839 3.000,9.000 C3.000,5.691 5.691,3.000 9.000,3.000 C10.818,3.000 12.519,3.814 13.667,5.234 C14.236,5.939 15.094,6.348 16.000,6.348 L16.000,6.348 C16.906,6.348 17.764,5.939 18.333,5.234 C19.480,3.814 21.182,3.000 23.000,3.000 M23.000,-0.000 C20.171,-0.000 17.649,1.307 16.000,3.348 C14.349,1.307 11.829,-0.000 9.000,-0.000 C4.029,-0.000 -0.000,4.029 -0.000,9.000 C-0.000,21.000 14.000,29.000 16.000,30.000 C18.000,29.000 32.000,21.000 32.000,9.000 C32.000,4.029 27.971,-0.000 23.000,-0.000 L23.000,-0.000 Z" class="cls-1"/>
</svg>
