<svg xmlns="http://www.w3.org/2000/svg" xmlns:xlink="http://www.w3.org/1999/xlink" preserveAspectRatio="xMidYMid" width="24" height="32" viewBox="0 0 24 32">
  <defs>
    <style>
      .cls-1 {
        fill: #dbdbdb;
        fill-rule: evenodd;
      }
    </style>
  </defs>
  <path d="M22.085,18.506 L14.101,30.855 C13.656,31.544 12.881,32.000 12.000,32.000 C11.119,32.000 10.344,31.544 9.899,30.855 L1.915,18.506 C0.703,16.631 -0.000,14.397 -0.000,12.000 C-0.000,5.374 5.372,-0.000 12.000,-0.000 C18.627,-0.000 24.000,5.374 24.000,12.000 C24.000,14.397 23.296,16.631 22.085,18.506 ZM12.000,3.000 C7.037,3.000 3.000,7.037 3.000,12.000 C3.000,13.738 3.496,15.425 4.435,16.878 L12.000,28.580 L19.565,16.877 C20.504,15.425 21.000,13.738 21.000,12.000 C21.000,7.037 16.962,3.000 12.000,3.000 ZM12.000,17.000 C9.238,17.000 7.000,14.761 7.000,12.000 C7.000,9.238 9.238,7.000 12.000,7.000 C14.762,7.000 17.000,9.238 17.000,12.000 C17.000,14.761 14.762,17.000 12.000,17.000 ZM12.000,10.000 C10.897,10.000 10.000,10.897 10.000,12.000 C10.000,13.102 10.897,14.000 12.000,14.000 C13.103,14.000 14.000,13.102 14.000,12.000 C14.000,10.897 13.103,10.000 12.000,10.000 Z" class="cls-1"/>
</svg>
