<svg xmlns="http://www.w3.org/2000/svg" xmlns:xlink="http://www.w3.org/1999/xlink" preserveAspectRatio="xMidYMid" width="26" height="31.969" viewBox="0 0 26 31.969">
  <defs>
    <style>
      .cls-1 {
        fill: #d8d8d8;
        fill-rule: evenodd;
      }
    </style>
  </defs>
  <path d="M13.000,3.712 L23.000,13.712 L23.000,28.969 L18.000,28.969 L18.000,21.969 C18.000,20.864 17.104,19.969 16.000,19.969 L10.000,19.969 C8.895,19.969 8.000,20.864 8.000,21.969 L8.000,28.969 L3.000,28.969 L3.000,13.712 L13.000,3.712 M13.884,0.353 C13.395,-0.136 12.604,-0.136 12.116,0.353 L0.586,11.883 C0.211,12.258 -0.000,12.767 -0.000,13.297 L-0.000,29.969 C-0.000,31.073 0.895,31.969 2.000,31.969 L9.000,31.969 C10.104,31.969 11.000,31.073 11.000,29.969 L11.000,22.969 L15.000,22.969 L15.000,29.969 C15.000,31.073 15.895,31.969 17.000,31.969 L24.000,31.969 C25.104,31.969 26.000,31.073 26.000,29.969 L26.000,13.297 C26.000,12.767 25.789,12.258 25.414,11.883 L13.884,0.353 Z" class="cls-1"/>
</svg>
