<svg xmlns="http://www.w3.org/2000/svg" xmlns:xlink="http://www.w3.org/1999/xlink" preserveAspectRatio="xMidYMid" width="27" height="32" viewBox="0 0 27 32">
  <defs>
    <style>
      .cls-1 {
        fill: #d8d8d8;
        fill-rule: evenodd;
      }
    </style>
  </defs>
  <path d="M25.000,32.000 L2.000,32.000 C0.897,32.000 0.000,31.102 0.000,30.000 L0.000,9.000 C0.000,7.897 0.897,7.000 2.000,7.000 L7.500,7.000 C8.329,7.000 9.000,7.672 9.000,8.500 C9.000,9.328 8.329,10.000 7.500,10.000 L3.000,10.000 L3.000,29.000 L24.000,29.000 L24.000,10.000 L19.500,10.000 C18.672,10.000 18.000,9.328 18.000,8.500 C18.000,7.672 18.672,7.000 19.500,7.000 L25.000,7.000 C26.103,7.000 27.000,7.897 27.000,9.000 L27.000,30.000 C27.000,31.102 26.103,32.000 25.000,32.000 ZM20.000,16.500 C20.000,16.914 19.832,17.289 19.561,17.560 L14.561,22.560 C14.289,22.832 13.914,23.000 13.500,23.000 C13.086,23.000 12.711,22.832 12.440,22.560 L7.440,17.560 C7.168,17.289 7.000,16.914 7.000,16.500 C7.000,15.672 7.672,15.000 8.500,15.000 C8.914,15.000 9.289,15.168 9.561,15.439 L12.000,17.879 L12.000,1.500 C12.000,0.672 12.672,-0.000 13.500,-0.000 C14.329,-0.000 15.000,0.672 15.000,1.500 L15.000,17.879 L17.440,15.439 C17.711,15.168 18.086,15.000 18.500,15.000 C19.329,15.000 20.000,15.672 20.000,16.500 Z" class="cls-1"/>
</svg>
