<svg xmlns="http://www.w3.org/2000/svg" xmlns:xlink="http://www.w3.org/1999/xlink" preserveAspectRatio="xMidYMid" width="32" height="32" viewBox="0 0 32 32">
  <defs>
    <style>
      .cls-1 {
        fill: #d8d8d8;
        fill-rule: evenodd;
      }
    </style>
  </defs>
  <path d="M20.000,-0.000 C13.373,-0.000 8.000,5.373 8.000,12.000 C8.000,14.772 8.949,17.318 10.529,19.349 L0.439,29.439 C0.146,29.732 -0.000,30.115 -0.000,30.500 C-0.000,30.884 0.146,31.267 0.439,31.560 C0.732,31.853 1.116,32.000 1.500,32.000 C1.884,32.000 2.268,31.853 2.560,31.560 L12.650,21.471 C14.681,23.051 17.227,24.000 20.000,24.000 C26.627,24.000 32.000,18.627 32.000,12.000 C32.000,5.373 26.627,-0.000 20.000,-0.000 ZM20.000,21.000 C15.037,21.000 11.000,16.963 11.000,12.000 C11.000,7.037 15.037,3.000 20.000,3.000 C24.963,3.000 29.000,7.037 29.000,12.000 C29.000,16.963 24.963,21.000 20.000,21.000 Z" class="cls-1"/>
</svg>
